<svg xmlns="http://www.w3.org/2000/svg" viewBox="0 0 78.28 38.94"><defs><style>.cls-1{fill:#fff;}</style></defs><g id="Layer_2" data-name="Layer 2"><g id="Layer_1-2" data-name="Layer 1"><rect class="cls-1" width="78.28" height="38.94"/><path d="M54.33,20a6.66,6.66,0,0,1-4.35.14c-1.33-.52-1.5-2.36-1.51-2.49C47.93,11.18,41.91,6.35,35,6.85A12.37,12.37,0,0,0,23.46,19.43c0,15.32,23.12,18.12,31.21.93A.28.28,0,0,0,54.33,20Zm-16.94-.9Q37.39,23,33.8,23a3.42,3.42,0,0,1-2.38,1h0a2.17,2.17,0,0,0-1.71.57,2.2,2.2,0,0,0-.39,1.32H27.79a3,3,0,0,1,3.15-3.18v0a3.4,3.4,0,0,0,.83-.09c-1.12-.57-1.69-1.72-1.69-3.49V16.93q0-3.52,3-3.88V10.92h1.54v2.14q2.8.43,2.8,3.87Zm2.35,1.64a1.81,1.81,0,0,0,1.59.66h2.22v2.78a.49.49,0,0,0,.08.21.68.68,0,0,0,.5.17v1.32a1.83,1.83,0,0,1-2-1.91v-1h-.85C39.07,22.88,38,21.58,38,19V16.84q0-3.93,3.36-3.93c2.22,0,3.35,1.31,3.35,3.93H43.26a3.23,3.23,0,0,0-.36-1.74,1.74,1.74,0,0,0-1.57-.67,1.79,1.79,0,0,0-1.59.67,3.16,3.16,0,0,0-.36,1.73V19A3.21,3.21,0,0,0,39.74,20.73Z"/><path d="M33,14.6v6a4.26,4.26,0,0,1-.08.78,1.68,1.68,0,0,1-1-.56,3,3,0,0,1-.39-1.73V16.93A3,3,0,0,1,32,15.19,1.76,1.76,0,0,1,33,14.6Z"/><path d="M35.84,16.93V19.1a3,3,0,0,1-.4,1.73,1.58,1.58,0,0,1-.92.56,6.56,6.56,0,0,0,0-.79v-6a1.6,1.6,0,0,1,.87.55A3,3,0,0,1,35.84,16.93Z"/></g></g></svg>