<svg xmlns="http://www.w3.org/2000/svg" viewBox="0 0 525.43 525.43"><defs><style>.cls-1{fill:#fff;}</style></defs><g id="Layer_2" data-name="Layer 2"><g id="Layer_1-2" data-name="Layer 1"><rect width="525.43" height="525.43"/><path class="cls-1" d="M301.46,146.34c-3.22,1-14.07,4.8-22.11,11.34L265,135.24a10.19,10.19,0,0,0-1.29-20.3h-.17a10.19,10.19,0,0,0-1.05,20.3l-14.35,22.44c-8-6.54-18.89-10.32-22.1-11.34l-1.59-.51.51,1.59A382.08,382.08,0,0,1,236.9,195.5l.13.71h53.44l.12-.71a382.51,382.51,0,0,1,11.94-48.08l.51-1.59ZM289,194.49H264.75V138L279,160.25l.75-.64c6.87-5.86,16.25-9.58,20.68-11.11A385.64,385.64,0,0,0,289,194.49Z"/><path class="cls-1" d="M223.76,198.81v14.55h80.59V198.81Zm38.94,12.84H225.47V200.53H262.7Z"/><path class="cls-1" d="M234.24,216v12.9h59.63V216Zm57.92,11.18H264.42v-9.46h27.74Z"/><path class="cls-1" d="M319.94,352.59H205.49a11.1,11.1,0,0,0-11.09,11.08v10.07H331V363.67A11.1,11.1,0,0,0,319.94,352.59ZM329.31,372H264.42V354.3h55.52a9.38,9.38,0,0,1,9.37,9.37Z"/><path class="cls-1" d="M247,388.92h-3.72v4.91h3.75c1.93,0,3-.93,3-2.42v-.06C250.11,389.74,248.94,388.92,247,388.92Zm21.06,1.67-2.31,5.82h4.59Zm0,0-2.31,5.82h4.59ZM247,388.92h-3.72v4.91h3.75c1.93,0,3-.93,3-2.42v-.06C250.11,389.74,248.94,388.92,247,388.92Zm0,0h-3.72v4.91h3.75c1.93,0,3-.93,3-2.42v-.06C250.11,389.74,248.94,388.92,247,388.92Zm21.06,1.67-2.31,5.82h4.59Zm0,0-2.31,5.82h4.59ZM247,388.92h-3.72v4.91h3.75c1.93,0,3-.93,3-2.42v-.06C250.11,389.74,248.94,388.92,247,388.92ZM194.4,376.85v33.64H331V376.85Zm21.78,21.31c0,4.19-3.31,6.67-8.28,6.67a14.33,14.33,0,0,1-9.6-3.39l3.16-3.77a10.53,10.53,0,0,0,6.64,2.45c1.52,0,2.34-.52,2.34-1.4v-.06c0-.85-.67-1.32-3.45-2-4.36-1-7.72-2.22-7.72-6.44v-.05c0-3.81,3-6.56,7.93-6.56a12.89,12.89,0,0,1,8.42,2.72l-2.84,4a10.31,10.31,0,0,0-5.73-2c-1.38,0-2.05.59-2.05,1.32v.06c0,.93.7,1.34,3.54,2,4.71,1,7.64,2.54,7.64,6.37Zm19-9.18H229v15.5h-5.68V389H217.2v-5h18Zm14.78,15.5-4.13-6.2h-2.49v6.2h-5.67V384h9.68c3.13,0,5.3.82,6.67,2.23a6.35,6.35,0,0,1,1.82,4.77v.05a6.47,6.47,0,0,1-4.22,6.29l4.89,7.14Zm23.57,0L272,400.83h-7.9l-1.46,3.65h-6l8.72-20.62h5.47l8.72,20.62ZM295.78,389h-6.15v15.5H284V389h-6.14v-5h18Zm8.31,15.5h-5.71V384h5.71Zm16.49,0-3.92-6.17-3.94,6.17h-6.38l7-10.41L306.63,384h6.52l3.63,5.77,3.66-5.77h6.38l-6.73,10,7,10.47Zm-54.79-8.07h4.59l-2.28-5.82ZM247,388.92h-3.72v4.91h3.75c1.93,0,3-.93,3-2.42v-.06C250.11,389.74,248.94,388.92,247,388.92Zm0,0h-3.72v4.91h3.75c1.93,0,3-.93,3-2.42v-.06C250.11,389.74,248.94,388.92,247,388.92Zm21.06,1.67-2.31,5.82h4.59Zm0,0-2.31,5.82h4.59ZM247,388.92h-3.72v4.91h3.75c1.93,0,3-.93,3-2.42v-.06C250.11,389.74,248.94,388.92,247,388.92Zm0,0h-3.72v4.91h3.75c1.93,0,3-.93,3-2.42v-.06C250.11,389.74,248.94,388.92,247,388.92Zm0,0h-3.72v4.91h3.75c1.93,0,3-.93,3-2.42v-.06C250.11,389.74,248.94,388.92,247,388.92Z"/><path class="cls-1" d="M321.94,340.51c-26.69-21.22-34.83-43.67-34.83-96.06,0-3.9.06-7.84.19-11.72l0-.89H240.14l0,.89c.12,3.87.19,7.81.19,11.72,0,54.74-8,77.17-34.15,96l-.36.26v8.68H322.27v-8.65ZM262.7,347.7H207.56v-6.08c14.05-10.22,22.6-21.47,27.68-36.45,4.79-14.09,6.82-32.24,6.82-60.72,0-3.63-.05-7.28-.16-10.89h20.8Z"/></g></g></svg>